
<svg version="1.0" xmlns="http://www.w3.org/2000/svg"
 width="512.000000pt" height="512.000000pt" viewBox="0 0 512.000000 512.000000"
 preserveAspectRatio="xMidYMid meet">

<g transform="translate(0.000000,512.000000) scale(0.100000,-0.100000)"
fill="currentColor" stroke="currentColor">
<path d="M2906 4536 l-26 -25 0 -385 0 -384 -42 -7 c-72 -12 -302 -82 -431
-131 -812 -309 -1417 -823 -1759 -1494 -104 -205 -196 -463 -248 -699 -44
-200 -80 -520 -80 -713 0 -81 2 -91 25 -113 26 -27 71 -33 98 -12 9 6 47 62
85 122 299 483 725 929 1162 1218 351 231 729 367 1118 402 l72 6 0 -376 0
-376 26 -25 c19 -20 33 -25 57 -22 26 3 225 161 930 738 589 482 900 742 903
757 4 13 4 33 0 46 -3 15 -316 277 -903 757 -709 581 -904 735 -929 738 -25 3
-39 -2 -58 -22z m1009 -941 c369 -301 670 -551 670 -555 0 -4 -346 -291 -770
-637 l-770 -630 -5 334 -5 335 -24 19 c-27 22 -87 24 -256 9 -494 -45 -968
-249 -1423 -613 -244 -194 -589 -563 -785 -839 -26 -38 -50 -68 -52 -68 -13 0
43 358 79 505 203 821 713 1443 1512 1844 270 135 646 265 858 296 31 5 58 16
73 31 l23 23 0 331 0 332 103 -85 c56 -46 404 -330 772 -632z"/>
</g>
</svg>
