<?xml version="1.0" encoding="UTF-8"?>
<svg version="1.1" xmlns="http://www.w3.org/2000/svg" width="477" height="477">
<path d="M0 0 C0.96594086 0.00054382 1.93188171 0.00108765 2.92709351 0.00164795 C18.82427694 0.04267209 34.1070568 0.96742637 49.6875 4.375 C51.16669922 4.69645996 51.16669922 4.69645996 52.67578125 5.02441406 C115.01932159 19.05783877 168.88070584 57.49294273 203.23828125 111.3046875 C220.06052831 138.40778853 231.78846923 168.83187125 236.6875 200.375 C236.86410156 201.49946533 237.04070312 202.62393066 237.22265625 203.7824707 C238.8250906 215.08750193 239.08674147 226.28041946 239.0625 237.6875 C239.06168427 239.13641129 239.06168427 239.13641129 239.06085205 240.61459351 C239.01982791 256.51177694 238.09507363 271.7945568 234.6875 287.375 C234.36604004 288.85419922 234.36604004 288.85419922 234.03808594 290.36328125 C220.00466123 352.70682159 181.56955727 406.56820584 127.7578125 440.92578125 C100.65471147 457.74802831 70.23062875 469.47596923 38.6875 474.375 C37.56303467 474.55160156 36.43856934 474.72820312 35.2800293 474.91015625 C23.97499807 476.5125906 12.78208054 476.77424147 1.375 476.75 C0.40905914 476.74945618 -0.55688171 476.74891235 -1.55209351 476.74835205 C-17.44927694 476.70732791 -32.7320568 475.78257363 -48.3125 472.375 C-49.29863281 472.16069336 -50.28476563 471.94638672 -51.30078125 471.72558594 C-113.64432159 457.69216123 -167.50570584 419.25705727 -201.86328125 365.4453125 C-218.68552831 338.34221147 -230.41346923 307.91812875 -235.3125 276.375 C-235.48910156 275.25053467 -235.66570312 274.12606934 -235.84765625 272.9675293 C-237.4500906 261.66249807 -237.71174147 250.46958054 -237.6875 239.0625 C-237.68695618 238.09655914 -237.68641235 237.13061829 -237.68585205 236.13540649 C-237.64482791 220.23822306 -236.72007363 204.9554432 -233.3125 189.375 C-233.09819336 188.38886719 -232.88388672 187.40273437 -232.66308594 186.38671875 C-218.62966123 124.04317841 -180.19455727 70.18179416 -126.3828125 35.82421875 C-99.27971147 19.00197169 -68.85562875 7.27403077 -37.3125 2.375 C-36.18803467 2.19839844 -35.06356934 2.02179687 -33.9050293 1.83984375 C-22.59999807 0.2374094 -11.40708054 -0.02424147 0 0 Z " fill="#D3D3D3" transform="translate(238.3125,0.625)"/>
<path d="M0 0 C11.74558866 9.53816582 23.01259069 23.55509856 24.83935547 39.10696411 C24.93900056 41.58149456 24.95260907 44.0392514 24.92578125 46.515625 C24.92652901 47.88675446 24.92652901 47.88675446 24.92729187 49.2855835 C24.92496366 51.21515074 24.91530967 53.14472175 24.89868164 55.07421875 C24.87539811 57.95081496 24.87809295 60.82646028 24.88476562 63.703125 C24.86380542 76.48474115 23.99006459 89.0514575 22.5625 101.75 C23.366875 101.894375 24.17125 102.03875 25 102.1875 C27.5625 102.75 27.5625 102.75 28.5625 103.75 C29.19295675 113.60694873 28.34787753 122.24368664 25.5625 131.75 C25.23860393 133.35190458 24.9252069 134.95598739 24.625 136.5625 C23.43078795 141.95603149 21.52566625 146.26565479 17 149.6875 C14.5625 150.75 14.5625 150.75 11.5625 150.75 C11.60890625 152.05710937 11.60890625 152.05710937 11.65625 153.390625 C11.32412811 165.29165934 4.33747506 181.22726699 -2.66796875 190.796875 C-6.04934327 196.58145843 -4.88225259 204.13220137 -4.75 210.625 C-4.73848855 212.05858079 -4.72870935 213.49217659 -4.72070312 214.92578125 C-4.60817182 228.07731968 -4.46638863 238.67411685 5.0546875 248.6640625 C9.69670288 253.20467079 14.7864067 255.82992607 20.625 258.5625 C21.67502197 259.07039063 22.72504395 259.57828125 23.80688477 260.1015625 C27.05151374 261.66671307 30.30626694 263.20916599 33.5625 264.75 C35.49813566 265.67945042 37.43306008 266.61038383 39.3671875 267.54296875 C43.13207532 269.35495729 46.90163796 271.15658948 50.67578125 272.94921875 C55.93004881 275.44537324 61.17308118 277.96440756 66.41455078 280.48730469 C75.76226325 284.98614408 85.11342182 289.46691884 94.5625 293.75 C94.2709429 296.80440772 93.55406361 297.75800152 91.2890625 299.90625 C81.74609124 307.1175633 71.82244907 313.60291363 61.5625 319.75 C60.93150391 320.12898438 60.30050781 320.50796875 59.65039062 320.8984375 C29.24715299 338.8501827 -8.65525602 349.66576036 -43.9921875 349.98828125 C-44.88320663 349.9980751 -45.77422577 350.00786896 -46.69224548 350.01795959 C-66.60046868 350.19162714 -85.89675224 350.02372546 -105.4375 345.75 C-106.91669922 345.42854004 -106.91669922 345.42854004 -108.42578125 345.10058594 C-142.76112017 337.37175965 -173.25324582 322.61016107 -201.4375 301.75 C-202.42234375 301.03585937 -203.4071875 300.32171875 -204.421875 299.5859375 C-205.08703125 298.98007812 -205.7521875 298.37421875 -206.4375 297.75 C-206.4375 296.76 -206.4375 295.77 -206.4375 294.75 C-199.48189134 291.32777465 -192.52316998 287.91191861 -185.5625 284.5 C-184.53330444 283.99546295 -183.50410889 283.4909259 -182.44372559 282.97109985 C-170.58298355 277.16147985 -158.71134867 271.4025464 -146.6875 265.9375 C-123.09976402 256.45934097 -123.09976402 256.45934097 -107.18408203 237.89379883 C-103.05414766 226.03475576 -102.2209229 201.78350607 -107.01171875 189.84765625 C-108.83453124 186.27559365 -111.1742226 183.05536195 -113.4375 179.75 C-117.94829776 170.68131892 -121.4375 160.94721088 -121.4375 150.75 C-122.159375 150.688125 -122.88125 150.62625 -123.625 150.5625 C-128.24813176 149.2269286 -130.59381593 146.21282173 -132.94921875 142.12890625 C-134.72551736 138.09610232 -135.72865026 134.17704152 -136.625 129.875 C-136.88434326 128.63665405 -136.88434326 128.63665405 -137.14892578 127.37329102 C-138.67031757 119.54824095 -139.31987856 111.70166729 -138.4375 103.75 C-137.7775 103.09 -137.1175 102.43 -136.4375 101.75 C-135.1175 101.75 -133.7975 101.75 -132.4375 101.75 C-132.64644897 99.86764648 -132.64644897 99.86764648 -132.85961914 97.94726562 C-134.16425922 85.64575613 -134.83838275 73.45111168 -134.86303711 61.08105469 C-134.87511629 58.22247933 -134.92473553 55.36594865 -134.97460938 52.5078125 C-135.13761314 33.99034507 -129.62469455 19.83824107 -116.87109375 6.015625 C-87.24160354 -21.56881211 -32.35041203 -25.02164042 0 0 Z " fill="#AEAFB0" transform="translate(295.4375,127.25)"/>
</svg>
