<svg class="svg-icon" style="width: 1em; height: 1em;vertical-align: middle;fill: currentColor;overflow: hidden;" viewBox="0 0 1024 1024" version="1.1" xmlns="http://www.w3.org/2000/svg"><path d="M512.001023 64.9912c246.873644 0 447.006753 200.13311 447.006754 447.0088 0 246.876714-200.13311 447.0088-447.006754 447.0088-246.876714 0-447.009823-200.132086-447.009823-447.0088 0-246.87569 200.13311-447.0088 447.009823-447.0088z" fill="#EEEEEE" /><path d="M415.445944 511.336898c71.101361 0 128.73806-56.555064 128.738059-126.322034 0-69.764923-57.637722-126.319987-128.738059-126.319987-71.099315 0-128.73806 56.555064-128.73806 126.319987 0 69.765947 57.638745 126.322034 128.73806 126.322034z m234.794537 21.052478c47.671743 0 86.315878-37.703717 86.315878-84.212984 0-46.511313-38.644135-84.212984-86.315878-84.212983-47.670719 0-86.315878 37.702694-86.315878 84.212983 0 46.509267 38.645159 84.212984 86.315878 84.212984z m1.062192 21.054525c-24.63405 0-47.64923 6.795776-67.212798 18.574031 7.299243 7.099698 14.371312 15.59007 20.268626 25.617447 5.129834 8.722662 8.689916 19.159362 11.157107 29.755698 10.279111-6.811126 22.670326-10.787694 36.008099-10.787694 34.919301 0 63.327304 27.259854 64.352657 61.263295-0.026606 0.51984-0.040932 1.042749-0.040932 1.568729 0 0.626263 0.024559 1.246387 0.061398 1.86344a70.432119 70.432119 0 0 1-0.100284 2.28709l0.325411-0.00921c2.066055 15.300474 15.405875 27.109428 31.562857 27.109428 16.761756 0 30.487362-12.707416 31.743981-28.837792l0.566912-0.01535c0.011256-0.688685 0.026606-1.376347 0.026606-2.068102 0.001023-69.765947-57.628512-126.32101-128.71964-126.32101z m-69.318762 106.448404c-18.634406-73.241095-86.122473-127.502929-166.537967-127.502929-80.202647 0-147.551544 53.975309-166.392658 126.924761l3.846608 1.388627a31.762401 31.762401 0 0 0-8.347109 21.501709c0 17.616216 14.293541 31.897478 31.925107 31.897478 17.632589 0 31.927153-14.280238 31.927153-31.897478 0-0.496304-0.01535-0.988514-0.037862-1.4797l1.64036 0.592494c9.320273-48.820915 52.978609-85.767386 105.437377-85.767386 52.795437 0 96.680946 37.418214 105.618503 86.702688l2.443655-0.89744c-0.007163 0.282433-0.021489 0.563842-0.021489 0.848321 0 17.616216 14.293541 31.897478 31.927153 31.897478 17.630542 0 31.924083-14.280238 31.924084-31.897478 0-8.179286-3.086291-15.638165-8.153704-21.283746l2.800789-1.027399z" fill="#CCCCCC" /></svg>