<svg version="1.1" xmlns="http://www.w3.org/2000/svg" 
     viewBox="0 0 256 256" class="my-icon">
  <g>
    <path fill="currentColor" d="M239.2,253.9"/>
    <path fill="currentColor" d="M134.1,2.1"/>
    <path fill="currentColor" d="M67.1,88.7"/>
    <path fill="currentColor" d="M156.7,98c3.5,0,6.4-2.9,6.4-6.4v-51c0-10.6-8.6-19.1-19.1-19.1H29.1C18.6,21.5,10,30,10,40.6v153.1c0,9.5,6.9,19.9,15.6,23.6l65.8,28.2c2.3,1,4.6,1.5,6.8,1.5c2.7,0,5.3-0.7,7.5-2.2c4-2.6,6.3-7.3,6.3-12.9v-19.1h31.9c10.6,0,19.1-8.6,19.1-19.1v-51c0-3.5-2.9-6.4-6.4-6.4c-3.5,0-6.4,2.8-6.4,6.4v51c0,3.5-2.9,6.4-6.4,6.4h-31.9V78.9c0-9.5-6.9-19.9-15.6-23.6l-49-21h96.5c3.5,0,6.4,2.9,6.4,6.4v51C150.3,95.1,153.2,98,156.7,98L156.7,98z"/>
    <path fill="currentColor" d="M91.5,66.9"/>
    <path fill="currentColor" d="M244.1,112.6l-38.3-38.3c-2.5-2.5-6.5-2.5-9,0c-2.5,2.5-2.5,6.5,0,9l27.4,27.4h-80.3c-3.5,0-6.4,2.9-6.4,6.4s2.9,6.4,6.4,6.4h80.3l-27.4,27.4c-2.5,2.5-2.5,6.5,0,9c1.3,1.3,2.9,1.9,4.5,1.9c1.6,0,3.3-0.6,4.5-1.9l38.3-38.3C246.6,119.1,246.6,115.1,244.1,112.6L244.1,112.6z"/>
  </g>
</svg>
