<?xml version="1.0" encoding="UTF-8"?>
<svg version="1.1" xmlns="http://www.w3.org/2000/svg" width="512" height="512">
<path d="M0 0 C1.24006624 -0.00226556 2.48013249 -0.00453111 3.7577765 -0.00686532 C7.17425039 -0.01207445 10.59067135 -0.0128547 14.0071454 -0.01167095 C17.70189059 -0.01146588 21.39662808 -0.01699577 25.09136963 -0.02172852 C32.32042287 -0.03001258 39.54946796 -0.03278234 46.77852556 -0.03334089 C52.6582216 -0.0338171 58.53791497 -0.03587707 64.41761017 -0.03904152 C81.1102194 -0.04784181 97.80282221 -0.05246185 114.49543378 -0.05171105 C115.84350552 -0.05165111 115.84350552 -0.05165111 117.21881104 -0.05158997 C118.11863056 -0.05154909 119.01845009 -0.0515082 119.94553688 -0.05146609 C134.52393801 -0.05105975 149.10231329 -0.06062783 163.68070695 -0.07472833 C178.67183748 -0.08911293 193.66295542 -0.09599738 208.65409303 -0.09513456 C217.06157921 -0.09480332 225.4690383 -0.09751836 233.87651825 -0.10831261 C241.03514959 -0.11744505 248.19374154 -0.11957039 255.35237619 -0.11280318 C258.99968758 -0.10955184 262.64692352 -0.10943079 266.2942276 -0.11815643 C270.26063921 -0.12754732 274.22694231 -0.12120936 278.19335938 -0.11352539 C279.32860668 -0.11866895 280.46385398 -0.12381252 281.63350272 -0.12911195 C298.94580508 -0.05543868 313.14364416 3.06856344 327.35064697 13.13371277 C327.98744385 13.57199402 328.62424072 14.01027527 329.28033447 14.46183777 C339.94986043 22.62377929 347.33698959 37.07607884 349.35064697 50.13371277 C349.4152374 51.90349038 349.43675762 53.67541429 349.41314697 55.44621277 C349.40412354 56.32922058 349.3951001 57.21222839 349.38580322 58.12199402 C349.36840088 59.1177948 349.36840088 59.1177948 349.35064697 60.13371277 C350.14986572 60.15949402 350.94908447 60.18527527 351.77252197 60.21183777 C367.98954114 61.04933641 383.20941577 67.00302942 394.35064697 79.13371277 C404.05499938 91.37781492 409.6902471 104.06959517 409.61134338 119.84191895 C409.61516893 120.67010311 409.61899448 121.49828727 409.62293595 122.35156792 C409.63317831 125.10103734 409.62929059 127.85029448 409.62530518 130.59977722 C409.62965654 132.58161104 409.6348411 134.56344317 409.64079285 136.54527283 C409.65414926 141.91109601 409.65476519 147.27684861 409.65222955 152.64268517 C409.65115743 157.13051421 409.65604942 161.6183291 409.66083497 166.1061551 C409.67191882 176.69892929 409.67237405 187.29166801 409.6663208 197.88444519 C409.66028299 208.79246353 409.67258976 219.70035282 409.69389087 230.60834914 C409.71153636 239.99123908 409.71750353 249.37408804 409.71425313 258.75699395 C409.71244463 264.35312072 409.71503297 269.94915544 409.72896767 275.54526711 C409.74158918 280.81076849 409.73956108 286.07606951 409.72655678 291.34156799 C409.72420075 293.26676693 409.72689051 295.19198017 409.7351799 297.1171627 C409.81270183 316.53127206 406.65177773 332.36081915 392.65533447 346.92277527 C381.26207334 357.85258172 368.20163753 364.13371277 352.35064697 364.13371277 C352.35064697 392.51371277 352.35064697 420.89371277 352.35064697 450.13371277 C344.47969582 445.63602639 344.47969582 445.63602639 341.10064697 443.24308777 C339.95922241 442.43895447 339.95922241 442.43895447 338.79473877 441.61857605 C337.98818848 441.04607117 337.18163818 440.47356628 336.35064697 439.88371277 C334.5657531 438.62552797 332.78058612 437.36773054 330.99517822 436.11027527 C330.06914795 435.45704285 329.14311768 434.80381042 328.18902588 434.13078308 C323.48520743 430.8211981 318.76153686 427.54027661 314.03814697 424.25871277 C312.094122 422.90717121 310.15011168 421.55560857 308.20611572 420.20402527 C307.23851318 419.53145691 306.27091064 418.85888855 305.27398682 418.16593933 C300.46534535 414.82310222 295.65805805 411.47831896 290.85064697 408.13371277 C288.93398694 406.8003699 287.01732027 405.46703657 285.10064697 404.13371277 C281.26731364 401.4670461 277.43398031 398.80037944 273.60064697 396.13371277 C272.65036621 395.47266541 271.70008545 394.81161804 270.7210083 394.13053894 C268.81973742 392.80788056 266.91853212 391.4851279 265.01739502 390.16227722 C259.99072898 386.66480908 254.96266638 383.16937053 249.93267822 379.67668152 C248.88338135 378.94771667 247.83408447 378.21875183 246.75299072 377.46769714 C244.73908615 376.06865724 242.7247826 374.67019145 240.71002197 373.27238464 C239.80381104 372.64267761 238.8976001 372.01297058 237.96392822 371.36418152 C237.16769043 370.81141541 236.37145264 370.25864929 235.55108643 369.68913269 C233.35064697 368.13371277 233.35064697 368.13371277 231.68895721 366.56057835 C228.43627153 364.57574966 225.4343722 364.71652187 221.73724365 364.7484436 C220.96641779 364.74320791 220.19559194 364.73797221 219.40140772 364.73257786 C216.81596928 364.71859868 214.23102877 364.72592241 211.64556885 364.733078 C209.79254716 364.72733618 207.93952922 364.7202537 206.08651733 364.71192932 C202.0934045 364.69680231 198.10042548 364.6910432 194.10728455 364.6924572 C187.78586396 364.69449025 181.46462308 364.67492541 175.14324951 364.65228271 C162.853727 364.61126971 150.56421848 364.59270527 138.27464294 364.57611084 C122.66082194 364.55377506 107.04704258 364.52007216 91.43328905 364.46891171 C85.15774523 364.44905636 78.88229492 364.43941437 72.60672092 364.43795955 C68.68813644 364.43519509 64.76960289 364.42433333 60.85103989 364.41144943 C59.04356741 364.40719529 57.2360832 364.40629234 55.42860794 364.40912437 C46.66956625 364.42126594 38.37077782 364.36504688 29.78983307 362.32974339 C24.87625114 361.93485244 21.48432723 365.18186725 17.85064697 368.13371277 C16.13515714 369.42885298 14.41898959 370.72309589 12.70220947 372.01652527 C11.82983643 372.69231628 10.95746338 373.3681073 10.05865479 374.06437683 C5.54326494 377.51483161 0.88344906 380.7546782 -3.77435303 384.00871277 C-4.63351318 384.62101746 -5.49267334 385.23332214 -6.37786865 385.86418152 C-7.56799561 386.7052948 -7.56799561 386.7052948 -8.78216553 387.56340027 C-9.4822876 388.06081726 -10.18240967 388.55823425 -10.90374756 389.07072449 C-12.64935303 390.13371277 -12.64935303 390.13371277 -14.64935303 390.13371277 C-14.64935303 361.75371277 -14.64935303 333.37371277 -14.64935303 304.13371277 C-17.28935303 304.13371277 -19.92935303 304.13371277 -22.64935303 304.13371277 C-38.95817345 300.78932257 -52.33211758 291.95715261 -62.02435303 278.44621277 C-69.00631897 267.34961802 -71.8052949 255.02016112 -71.78979492 241.98318481 C-71.79276604 241.19078905 -71.79573717 240.39839329 -71.79879832 239.58198553 C-71.80743106 236.94158359 -71.80898896 234.30122728 -71.81048584 231.66081238 C-71.81511793 229.76133631 -71.82014311 227.86186116 -71.82553101 225.96238708 C-71.838621 220.81119976 -71.84509354 215.66002546 -71.84954166 210.50882411 C-71.85247842 207.28562099 -71.8565844 204.06242139 -71.86104584 200.83922005 C-71.874713 190.74035024 -71.88438298 180.64148852 -71.88824773 170.54261011 C-71.892724 158.91175486 -71.91025525 147.28101738 -71.93924832 135.65019792 C-71.9609172 126.6426914 -71.97095481 117.63521789 -71.97228885 108.62768561 C-71.97333332 103.25613816 -71.97916452 97.88470154 -71.99710846 92.51318169 C-72.01367893 87.45454534 -72.01570137 82.39610207 -72.00696945 77.33744812 C-72.00620381 75.49048912 -72.01047868 73.64351935 -72.0204277 71.79658699 C-72.12580148 50.99962925 -68.82757495 33.62142092 -54.46966553 17.71965027 C-39.17864038 2.73753472 -20.50696484 -0.0277556 0 0 Z M-37.18841553 43.01261902 C-44.12915806 53.05843057 -42.94245588 65.57635861 -42.92401123 77.24455261 C-42.92836438 79.06890063 -42.93354954 80.89324682 -42.9394989 82.71759033 C-42.95283513 87.64948556 -42.95347359 92.5813039 -42.9509356 97.51321363 C-42.94986225 101.64072073 -42.95475855 105.76821251 -42.95954102 109.89571631 C-42.97061759 119.63847169 -42.97108402 129.38118852 -42.96502686 139.12394714 C-42.95898783 149.15210108 -42.97130056 159.18011468 -42.99259692 169.20824468 C-43.01024835 177.83956936 -43.01620871 186.47084952 -43.01295918 195.10219157 C-43.01115185 200.24782228 -43.01372739 205.39335287 -43.02767372 210.53896713 C-43.04030522 215.38014655 -43.03825788 220.22110816 -43.02526283 225.06228447 C-43.02290907 226.83106627 -43.0255883 228.59986365 -43.03388596 230.36862755 C-43.13175152 249.76395323 -43.13175152 249.76395323 -33.64935303 266.13371277 C-25.46590125 274.13531006 -17.65976064 275.57823613 -6.55926514 275.49406433 C-4.91836914 275.45764832 -3.27747314 275.4212323 -1.58685303 275.38371277 C3.67252197 275.30121277 8.93189697 275.21871277 14.35064697 275.13371277 C14.35064697 294.60371277 14.35064697 314.07371277 14.35064697 334.13371277 C18.86236185 332.33807201 18.86236185 332.33807201 22.74908447 329.87590027 C23.69678711 329.19769226 23.69678711 329.19769226 24.66363525 328.50578308 C25.34409912 328.01174988 26.02456299 327.51771667 26.72564697 327.00871277 C28.25106081 325.91668941 29.77713812 324.82559242 31.30377197 323.73527527 C32.119104 323.15165222 32.93443604 322.56802917 33.7744751 321.96672058 C38.31579023 318.73546641 42.89693802 315.5616472 47.47564697 312.38371277 C48.92487549 311.37655212 48.92487549 311.37655212 50.40338135 310.3490448 C54.38450943 307.58233136 58.36664303 304.81706665 62.34869385 302.05168152 C65.30803603 299.99620644 68.26684857 297.93997051 71.22564697 295.88371277 C72.09076904 295.28333191 72.95589111 294.68295105 73.847229 294.06437683 C74.71202881 293.46335144 75.57682861 292.86232605 76.46783447 292.24308777 C77.76895377 291.36055328 77.76895377 291.36055328 79.0963583 290.46018982 C81.48368235 288.80144741 83.71560929 287.02009042 85.94585514 285.15629578 C96.97078779 276.23494522 105.26539172 274.41828092 119.20587158 274.74308777 C121.13302278 274.74315881 123.06018035 274.73786729 124.98730469 274.72769165 C130.16780271 274.71471943 135.34515142 274.77429851 140.52505946 274.84678268 C145.96952162 274.90907163 151.41384778 274.89935681 156.8585968 274.89665222 C167.1562594 274.90156451 177.45265242 274.96388761 187.74992329 275.05026913 C206.2001703 275.20316652 224.65085824 275.25773523 243.10166556 275.29105568 C249.56794282 275.30501499 256.03343471 275.3441506 262.49943817 275.40476131 C266.52275383 275.43934077 270.5460422 275.45792941 274.56947327 275.47302437 C276.42784591 275.48362785 278.28619457 275.50119232 280.14442635 275.52641106 C292.71163738 275.69313463 302.9228689 275.24759631 312.59283447 266.20402527 C318.30627758 259.47485894 320.49994036 252.00630954 320.49781799 243.36135864 C320.50333303 242.1614075 320.50333303 242.1614075 320.50895947 240.93721491 C320.5200026 238.24741804 320.52384126 235.55765979 320.52764893 232.86784363 C320.53391323 230.94276303 320.54056 229.01768365 320.54756165 227.09260559 C320.5686127 220.76126448 320.57896667 214.42992311 320.58892822 208.09855652 C320.59297573 205.91857452 320.59709265 203.73859265 320.60127831 201.55861092 C320.62033418 191.31450729 320.63456301 181.07041088 320.64289027 170.82629293 C320.65265728 159.00628245 320.67896122 147.18645951 320.71939117 135.3665151 C320.74957364 126.22836809 320.76436128 117.09027476 320.76767129 107.95207888 C320.77001982 102.49560611 320.77895445 97.03933359 320.80413246 91.58291435 C320.8274546 86.44551009 320.83162967 81.30843733 320.82137108 76.1709938 C320.82087658 74.29010095 320.82717165 72.40919155 320.84092712 70.52834892 C320.92569024 58.24644049 320.69499137 47.41458864 311.58806515 38.07636493 C303.34080782 30.91563276 294.57380296 29.25369595 283.97157288 29.38526917 C282.67726732 29.37732035 281.38296177 29.36937154 280.04943484 29.36118186 C276.49067087 29.34018528 272.93292457 29.35614703 269.37420619 29.37868285 C265.52345113 29.39647687 261.67282145 29.37944862 257.82206726 29.36695862 C250.29269914 29.34804355 242.7637161 29.36112737 235.23437671 29.3854845 C226.45900796 29.41280904 217.68372957 29.40944148 208.90832909 29.40521784 C193.24880482 29.39884726 177.58946289 29.42212254 161.92999268 29.46134949 C146.746668 29.49937348 131.56355688 29.51351837 116.38018799 29.50236511 C99.82802924 29.49024227 83.27596422 29.49061543 66.72381324 29.51333678 C64.95814018 29.51575126 63.19246712 29.51816323 61.42679405 29.52057266 C60.55814147 29.52177974 59.68948889 29.52298682 58.7945135 29.52423047 C52.68211351 29.53197902 46.56974849 29.53120541 40.45734596 29.52740097 C33.00759988 29.52315149 25.55804051 29.53364771 18.10834698 29.56262808 C14.3096909 29.57708798 10.51130636 29.58529435 6.71262741 29.57614136 C2.59107459 29.56645207 -1.52973824 29.58786795 -5.65122986 29.61231995 C-6.84636851 29.6047613 -8.04150716 29.59720265 -9.27286214 29.58941495 C-21.15928782 29.71417996 -29.62499536 33.77910354 -37.18841553 43.01261902 Z M349.35064697 89.13371277 C349.34844713 90.39763446 349.34844713 90.39763446 349.34620285 91.68708992 C349.30906902 112.23798546 349.24996738 132.78871694 349.16674423 153.33947945 C349.12702096 163.27789182 349.09459447 173.21622578 349.07965088 183.15470886 C349.06659947 191.8222305 349.03954622 200.48957912 348.99603391 209.15700328 C348.97349727 213.74170928 348.95773158 218.32620249 348.95876312 222.91096878 C348.95951438 227.23669788 348.94137897 231.56195801 348.90947914 235.88756561 C348.90104228 237.46519452 348.89918735 239.04287641 348.90484428 240.62051773 C348.95754352 257.59389766 344.76084388 270.33599727 335.16314697 284.32121277 C324.69520412 294.78915562 311.46796576 302.50100643 296.4392128 303.35631943 C295.05011676 303.35389333 293.66100925 303.34056397 292.27209473 303.31797791 C291.49941214 303.31389239 290.72672956 303.30980687 289.93063235 303.30559754 C287.36246622 303.28992388 284.79466356 303.2600132 282.22662354 303.23039246 C280.37615195 303.2167587 278.52567203 303.20421937 276.67518616 303.19268799 C272.69797402 303.16696378 268.72084197 303.13624207 264.74369049 303.10245514 C258.43665578 303.05168459 252.12971871 303.02917371 245.82250977 303.01365662 C244.75525327 303.01093931 243.68799677 303.008222 242.58839917 303.00542235 C240.40619429 302.99998933 238.22398916 302.99465416 236.04178381 302.98941469 C221.36869011 302.95377257 206.69647504 302.90318055 192.02398682 302.76017761 C182.11321869 302.66379035 172.20359748 302.61782923 162.29234862 302.62878156 C157.05813823 302.63263035 151.82676756 302.61190957 146.59314728 302.52942657 C117.57840084 301.28287723 117.57840084 301.28287723 92.88006592 314.65261841 C92.28944366 315.24735647 91.69882141 315.84209454 91.09030151 316.45485497 C88.42282749 319.0291072 85.46356932 320.9362093 82.36627197 322.96574402 C81.39302979 323.63799011 80.4197876 324.31023621 79.41705322 325.00285339 C77.4627842 326.35132612 75.50694275 327.69752175 73.54986572 329.04191589 C72.60240479 329.69740417 71.65494385 330.35289246 70.67877197 331.02824402 C69.84249268 331.60421326 69.00621338 332.1801825 68.14459229 332.77360535 C67.55259033 333.2224408 66.96058838 333.67127625 66.35064697 334.13371277 C66.35064697 334.46371277 66.35064697 334.79371277 66.35064697 335.13371277 C67.66371763 335.13038185 67.66371763 335.13038185 69.00331497 335.12698364 C90.33797683 335.07561899 111.67225619 335.06856455 133.00694656 335.11036682 C143.32445112 335.12952245 153.64155938 335.13387502 163.95904541 335.10295105 C172.95551329 335.07602451 181.95146771 335.07730882 190.94791675 335.11197186 C195.70832831 335.12934156 200.46782063 335.13292194 205.22818756 335.10267639 C209.71679773 335.07460431 214.20378437 335.08449512 218.69230652 335.12244987 C220.33207116 335.12981672 221.97196477 335.12377712 223.61161041 335.10269356 C234.63681915 334.97116867 241.59665905 336.96323787 250.35064697 344.13371277 C251.92098565 345.24047173 253.49887508 346.33671884 255.08892822 347.41496277 C256.61455642 348.4866155 258.13927298 349.55956705 259.66314697 350.63371277 C261.40251286 351.85537658 263.14210532 353.07671787 264.88189697 354.29777527 C265.77650635 354.92587097 266.67111572 355.55396667 267.59283447 356.20109558 C273.22940261 360.15108437 278.88254017 364.07729596 284.53546143 368.00382996 C289.58860596 371.51424738 294.63634174 375.03202119 299.67486572 378.56340027 C300.70893555 379.28672546 301.74300537 380.01005066 302.80841064 380.7552948 C304.78290321 382.13669486 306.75581887 383.52035264 308.72686768 384.90666199 C310.07204468 385.84663025 310.07204468 385.84663025 311.44439697 386.80558777 C312.22492432 387.35311707 313.00545166 387.90064636 313.80963135 388.46476746 C316.90169653 390.49564347 320.13869598 392.2983122 323.35064697 394.13371277 C323.35064697 374.66371277 323.35064697 355.19371277 323.35064697 335.13371277 C339.28814697 335.38371277 339.28814697 335.38371277 344.26055908 335.49406433 C352.05828689 335.55319221 358.55697731 335.37663862 365.35064697 331.13371277 C366.00001221 330.75513123 366.64937744 330.37654968 367.31842041 329.98649597 C374.21568549 325.81425769 378.22798604 318.73761747 380.35064697 311.13371277 C380.53721043 308.38751501 380.62952274 305.74454493 380.61807251 303.00059509 C380.62486918 301.79679903 380.62486918 301.79679903 380.63180315 300.56868386 C380.64443083 297.88815266 380.64282784 295.20782506 380.64117432 292.52726746 C380.64716064 290.60174296 380.65396642 288.67622086 380.66152954 286.7507019 C380.67918747 281.52533295 380.68388487 276.30002951 380.68516111 271.0746336 C380.68658353 267.80774188 380.69085489 264.54086678 380.69615555 261.27397919 C380.71465605 249.87027938 380.72282625 238.46662631 380.72125244 227.06291199 C380.72005146 216.44401281 380.74114537 205.82531702 380.77273977 195.2064693 C380.79892039 186.08099246 380.80961897 176.95558197 380.80834162 167.83006787 C380.80783246 162.38371202 380.81349029 156.93753691 380.83469772 151.49121857 C380.85410977 146.3660703 380.85418419 141.2412746 380.83966446 136.11611366 C380.83757886 134.24006191 380.84226233 132.36398791 380.85438538 130.48797417 C380.9306602 117.86208639 380.49879088 107.53064745 371.32330322 97.88761902 C366.26222873 93.38777259 361.21974592 91.11189593 354.55377197 90.00090027 C353.08665771 89.75122498 353.08665771 89.75122498 351.58990479 89.49650574 C350.85094971 89.37678406 350.11199463 89.25706238 349.35064697 89.13371277 Z " fill="#FFFFFF" transform="translate(86.64935302734375,29.866287231445313)"/>
<path d="M0 0 C9.57 0 19.14 0 29 0 C29 9.57 29 19.14 29 29 C19.43 29 9.86 29 0 29 C0 19.43 0 9.86 0 0 Z " fill="#FFFFFF" transform="translate(268,163)"/>
<path d="M0 0 C9.57 0 19.14 0 29 0 C29 9.57 29 19.14 29 29 C19.43 29 9.86 29 0 29 C0 19.43 0 9.86 0 0 Z " fill="#FFFFFF" transform="translate(211,163)"/>
<path d="M0 0 C9.57 0 19.14 0 29 0 C29 9.57 29 19.14 29 29 C19.43 29 9.86 29 0 29 C0 19.43 0 9.86 0 0 Z " fill="#FFFFFF" transform="translate(155,163)"/>
</svg>
