<?xml version="1.0" encoding="UTF-8"?>
<svg version="1.1" xmlns="http://www.w3.org/2000/svg" width="512" height="512">
<path d="M0 0 C1.49479394 -0.00373869 2.98958592 -0.00834109 4.48437482 -0.01373065 C8.58418581 -0.02594919 12.68391513 -0.02570153 16.78374016 -0.02334189 C21.20857696 -0.02293343 25.63338767 -0.03397573 30.05821228 -0.04345703 C38.72480075 -0.06006214 47.39136201 -0.06556637 56.05796506 -0.06668179 C63.10432432 -0.06763257 70.1506746 -0.07174439 77.19703102 -0.07808304 C97.18241339 -0.09569476 117.16777429 -0.10492211 137.15316447 -0.10342209 C138.7689178 -0.10330222 138.7689178 -0.10330222 140.41731262 -0.10317993 C141.49579955 -0.10309817 142.57428647 -0.10301641 143.68545482 -0.10293217 C161.15919435 -0.10211948 178.63284763 -0.12125315 196.10656222 -0.14945666 C214.05596489 -0.17819891 232.00532552 -0.19199619 249.95475179 -0.19026911 C260.02892499 -0.18960564 270.10300781 -0.19507934 280.17716026 -0.21662521 C288.75557835 -0.23485472 297.33386508 -0.23916986 305.91229417 -0.22560637 C310.28647198 -0.21908542 314.66039792 -0.21892778 319.03455162 -0.23631287 C323.0449205 -0.25208766 327.05483872 -0.24913539 331.06519691 -0.2317446 C332.51001196 -0.22868434 333.95486101 -0.23227015 335.39963593 -0.24346475 C350.17536987 -0.35029897 362.58298661 3.26907078 373.71199036 13.29867554 C382.52885718 22.5337998 387.78218467 34.33627328 387.72550964 47.12770081 C387.73004076 47.88883928 387.73457187 48.64997776 387.73924029 49.43418103 C387.75183723 51.96874658 387.75026697 54.50309595 387.74861145 57.03768921 C387.75459974 58.8615954 387.76140597 60.68549906 387.76896667 62.50939941 C387.78660561 67.45386142 387.79132123 72.39825416 387.79259825 77.34274459 C387.79402186 80.43595009 387.7982955 83.5291381 387.80359268 86.62233925 C387.82208763 97.42535135 387.83026417 108.22831415 387.82868958 119.03134155 C387.82748908 129.0816214 387.84857485 139.13168619 387.8801769 149.18191165 C387.90638297 157.82591576 387.91705502 166.46984983 387.91577876 175.11389333 C387.9152703 180.26966722 387.92088888 185.42525 387.94213486 190.58098412 C387.96158969 195.43448122 387.96159238 200.28760638 387.94710159 205.1411171 C387.9450212 206.91473882 387.94966812 208.68838426 387.96182251 210.46196556 C388.05198543 224.53909885 386.28191907 235.77438049 377.45808411 247.26742554 C376.84062317 248.09242554 376.22316223 248.91742554 375.58699036 249.76742554 C368.08798708 258.57359452 357.67128322 263.29851636 346.45808411 265.26742554 C344.85658762 265.35119414 343.25218564 265.38877664 341.6485014 265.38653755 C340.23019371 265.38827388 340.23019371 265.38827388 338.78323334 265.39004529 C337.75269847 265.38624855 336.72216359 265.38245182 335.66040039 265.37854004 C334.55921366 265.37853906 333.45802692 265.37853807 332.32347089 265.37853706 C328.6263802 265.37750234 324.92933612 265.36948346 321.23225403 265.36166382 C318.58443072 265.35978496 315.93661129 265.35834207 313.28878784 265.35758972 C308.32222186 265.35574082 303.35566209 265.35221733 298.38909874 265.34677212 C288.62840981 265.33631001 278.86777386 265.34056552 269.10708618 265.35040283 C267.56976372 265.35189038 266.03244126 265.35337624 264.4951188 265.35486042 C261.38284994 265.35791108 258.27058117 265.3610426 255.15831244 265.36421943 C247.16017389 265.37233652 239.16203524 265.37977701 231.16389465 265.3855896 C229.96008466 265.38647301 229.96008466 265.38647301 228.73195527 265.38737427 C215.72698751 265.39623971 202.72212007 265.38333338 189.71716877 265.36329688 C176.36015405 265.34331027 163.00333364 265.34995113 149.64633828 265.38044345 C141.41031904 265.39834127 133.17486369 265.39504143 124.93887935 265.3644592 C119.29333993 265.34541631 113.64819285 265.35198244 108.00268551 265.37859888 C104.74663538 265.39317331 101.49182597 265.39262265 98.23579788 265.36907005 C94.70182578 265.34527202 91.17058566 265.36450203 87.63671875 265.39440918 C86.10095469 265.36863759 86.10095469 265.36863759 84.53416508 265.34234536 C78.02821954 265.45701972 74.72206508 266.86151544 70.11682779 271.49602401 C69.56944237 272.08058652 69.02205696 272.66514902 68.45808411 273.26742554 C67.43692052 274.20159863 66.40750649 275.1268716 65.36824036 276.04086304 C59.95379692 280.98739161 54.67478284 286.00826957 49.52449036 291.23226929 C47.62414214 293.10387878 45.67493316 294.85060345 43.64558411 296.57992554 C40.06909596 299.64242736 36.76418612 302.92022841 33.45808411 306.26742554 C29.61136631 310.16183978 25.70721223 313.87132849 21.52839661 317.41195679 C17.86494349 320.69524024 14.48624753 324.2758698 11.07136536 327.81430054 C7.34378031 331.31343867 4.24749828 333.6956084 -0.97941589 333.70492554 C-5.47635197 333.54753277 -8.11600203 332.27554503 -11.54191589 329.26742554 C-15.99247895 321.91921465 -13.06145351 312.36811098 -11.57316589 304.45101929 C-11.37340149 303.35395157 -11.17363708 302.25688385 -10.96781921 301.12657166 C-10.33325912 297.65128328 -9.68776885 294.17813103 -9.04191589 290.70492554 C-8.60759634 288.33722002 -8.17399514 285.96938261 -7.74113464 283.60140991 C-6.68303404 277.82186335 -5.61597208 272.04402702 -4.54191589 266.26742554 C-5.60845398 266.09001831 -6.67499207 265.91261108 -7.77384949 265.72982788 C-21.81689238 263.30691507 -21.81689238 263.30691507 -28.16691589 259.89242554 C-29.25230652 259.32781616 -30.33769714 258.76320679 -31.45597839 258.18148804 C-43.19359016 250.90119719 -50.24570183 239.56365715 -53.54191589 226.26742554 C-53.72428792 223.61036761 -53.82109842 221.06067675 -53.80934143 218.40715027 C-53.81387254 217.64601179 -53.81840366 216.88487332 -53.82307208 216.10067004 C-53.83566902 213.56610449 -53.83409876 211.03175513 -53.83244324 208.49716187 C-53.83843152 206.67325567 -53.84523776 204.84935201 -53.85279846 203.02545166 C-53.87043739 198.08098965 -53.87515302 193.13659692 -53.87643003 188.19210649 C-53.87785365 185.09890098 -53.88212729 182.00571297 -53.88742447 178.91251183 C-53.90591942 168.10949973 -53.91409595 157.30653693 -53.91252136 146.50350952 C-53.91132086 136.45322967 -53.93240664 126.40316488 -53.96400869 116.35293943 C-53.99021476 107.70893532 -54.00088681 99.06500125 -53.99961054 90.42095774 C-53.99910208 85.26518386 -54.00472067 80.10960108 -54.02596664 74.95386696 C-54.04542148 70.10036985 -54.04542417 65.24724469 -54.03093338 60.39373398 C-54.02885299 58.62011226 -54.03349991 56.84646681 -54.0456543 55.07288551 C-54.14677243 39.28531559 -51.45221456 26.15443002 -40.51066589 14.01351929 C-28.64667322 2.68684512 -15.77930907 -0.03734505 0 0 Z M-21.54191589 20.26742554 C-22.33984558 20.72504272 -23.13777527 21.18265991 -23.95988464 21.65414429 C-30.86767897 26.73205932 -35.20669931 33.00818627 -37.54191589 41.26742554 C-37.7312763 43.83401803 -37.8292737 46.29140532 -37.82279968 48.85559082 C-37.82874193 49.59954066 -37.83468417 50.3434905 -37.84080648 51.10998428 C-37.85809105 53.59236116 -37.86118928 56.07454413 -37.86418152 58.55697632 C-37.87344435 60.341328 -37.88349454 62.12567574 -37.89427185 63.91001892 C-37.92046438 68.75122259 -37.93339922 73.59237085 -37.94229317 78.43363428 C-37.94816448 81.46200836 -37.95637601 84.49036746 -37.96530151 87.51873398 C-37.99263873 97.00464401 -38.01197742 106.49051961 -38.0197053 115.9764663 C-38.02865963 126.90626194 -38.06372814 137.83555646 -38.12170649 148.76519978 C-38.16502465 157.22659509 -38.18511839 165.68784986 -38.18778753 174.14935482 C-38.18987789 179.19683364 -38.20156869 184.24384101 -38.23742676 189.29120255 C-38.27053505 194.04386067 -38.27462975 198.79569669 -38.25714874 203.54842949 C-38.25561566 205.28497848 -38.26419203 207.02157301 -38.28406525 208.75800896 C-38.4209254 221.46995089 -36.53562944 230.74264294 -27.91691589 240.70492554 C-20.06040716 247.8472062 -11.14946531 249.81216635 -0.76847839 249.93148804 C3.82612115 250.40986039 7.21420523 251.89915877 10.33308411 255.32992554 C13.03493517 262.38475886 11.31627374 270.44845324 9.89167786 277.66976929 C9.73393387 278.51415054 9.57618988 279.3585318 9.41366577 280.22850037 C8.91613679 282.88899917 8.40714287 285.54709144 7.89558411 288.20492554 C7.38103561 290.8878425 6.86925842 293.5711252 6.36679077 296.2563324 C6.05574163 297.91820813 5.73775609 299.57880417 5.41204834 301.23786926 C4.54522148 305.7849298 4.54522148 305.7849298 5.45808411 310.26742554 C6.08714661 309.62676147 6.71620911 308.98609741 7.36433411 308.32601929 C15.20829218 300.39936888 15.20829218 300.39936888 19.33308411 296.89242554 C22.89094638 293.85311809 26.17250101 290.59378534 29.45808411 287.26742554 C33.28795786 283.39013768 37.1785972 279.70498941 41.33308411 276.17367554 C44.1520386 273.64490753 46.79727658 270.96079251 49.45808411 268.26742554 C53.95134642 263.72425371 58.50154283 259.31151262 63.45808411 255.26742554 C64.37074036 254.49592163 64.37074036 254.49592163 65.30183411 253.70883179 C71.28821674 249.70706513 77.49843848 249.98674483 84.42503357 250.02259827 C85.53241957 250.02033369 86.63980557 250.01806912 87.78074872 250.01573592 C91.49307637 250.01043709 95.20523739 250.01927367 98.91755676 250.02792358 C101.57874581 250.02681075 104.23992156 250.0248791 106.90110779 250.02182007 C112.63374085 250.01660145 118.3663401 250.0180878 124.09897232 250.02359581 C133.16770938 250.03182062 142.23637382 250.02056866 151.30509949 250.00639343 C154.41056997 250.00179248 157.51604066 249.99734208 160.62151146 249.99295521 C161.39758106 249.99185707 162.17365066 249.99075893 162.97323752 249.98962751 C171.80298172 249.97745865 180.63272825 249.96990323 189.46247864 249.96395874 C190.26938512 249.96341068 191.0762916 249.96286262 191.9076498 249.96229795 C204.9744849 249.95384444 218.04129937 249.95717416 231.10813458 249.96311309 C244.53749489 249.96873822 257.96675169 249.9551583 271.39608037 249.9255603 C279.67120984 249.90805558 287.94603946 249.90634318 296.22116737 249.92520545 C301.89796413 249.93684605 307.57455931 249.93030685 313.25132997 249.90973624 C316.5218482 249.89846039 319.7917422 249.89789935 323.06225586 249.91391182 C326.61839259 249.93008057 330.17315677 249.91531739 333.72923279 249.89320374 C334.74852391 249.90524123 335.76781503 249.91727873 336.81799376 249.929681 C346.62374095 249.80600169 355.00882235 246.69211513 362.45808411 240.26742554 C373.1372026 228.55484396 372.60886798 215.23040918 372.60334778 200.20370483 C372.60634331 198.57507246 372.60974674 196.9464408 372.61352539 195.31781006 C372.62232931 190.91065715 372.62470198 186.50352368 372.62534118 182.09636283 C372.62605371 179.33835192 372.62819186 176.58034589 372.63083839 173.8223362 C372.64007975 164.18757439 372.64417478 154.55282639 372.64338684 144.9180603 C372.64278631 135.95786779 372.65333633 126.99773553 372.6691305 118.03755826 C372.68223454 110.32688258 372.68756954 102.61622653 372.68693143 94.90553981 C372.68667729 90.30822268 372.6894818 85.71095915 372.70010948 81.11365318 C372.70983883 76.78716998 372.7098367 72.46079108 372.70259285 68.13430405 C372.70155301 66.55377232 372.70387387 64.97323393 372.70995331 63.39271355 C372.76184491 48.9579428 372.23067729 36.00643012 362.16120911 24.86898804 C355.90944438 18.99003497 348.72494554 16.02132268 340.1383009 16.01015663 C338.88136588 16.00370774 337.62443087 15.99725885 336.32940692 15.99061453 C334.94230114 15.99355654 333.55519577 15.99669195 332.16809082 16 C330.68852103 15.99626233 329.20895322 15.99166034 327.72938854 15.98626935 C323.66713247 15.97403839 319.60495876 15.97429993 315.54268849 15.97665811 C311.16015487 15.97706625 306.77764766 15.9660274 302.39512634 15.95654297 C293.81028747 15.93993158 285.22547606 15.93443336 276.64062246 15.93331821 C269.66238663 15.93236783 262.68415986 15.928258 255.7059269 15.92191696 C235.92078946 15.90430435 216.13567372 15.89507815 196.35052838 15.89657791 C195.2839539 15.89665782 194.21737942 15.89673773 193.1184845 15.89682007 C191.51666915 15.89694271 191.51666915 15.89694271 189.88249389 15.89706783 C172.57479345 15.89788079 155.26718002 15.87874071 137.95950475 15.85054334 C120.1875601 15.82181807 102.4156579 15.80800284 84.64368945 15.80973089 C74.66628871 15.8103949 64.68897919 15.80489759 54.71159935 15.78337479 C46.21687982 15.76516773 37.72229286 15.76081177 29.22756227 15.77439363 C24.89426758 15.78092561 20.56122729 15.78103223 16.22795677 15.76368713 C12.25841229 15.74796149 8.28932402 15.75081461 4.3197907 15.7682554 C2.88643917 15.77132643 1.45305364 15.76768894 0.01974221 15.75653525 C-8.06855822 15.69777984 -14.48313525 16.11751258 -21.54191589 20.26742554 Z " fill="#FFFFFF" transform="translate(124.54191589355469,16.732574462890625)"/>
<path d="M0 0 C3.38121991 2.44598887 4.76936783 3.89296559 5.625 8 C4.74322081 12.23254013 3.51225937 13.45189026 0 16 C-2.69387091 16.87518786 -5.40528003 17.53798517 -8.15625 18.2109375 C-16.85332187 20.62413601 -22.29442928 25.37902133 -27 33 C-32.07233479 42.92089011 -31.14924554 54.22456089 -31.14526367 65.0637207 C-31.1482592 66.69235307 -31.15166264 68.32098474 -31.15544128 69.94961548 C-31.16424521 74.35676839 -31.16661787 78.76390186 -31.16725707 83.17106271 C-31.1679696 85.92907362 -31.17010776 88.68707965 -31.17275429 91.44508934 C-31.18199564 101.07985114 -31.18609067 110.71459915 -31.18530273 120.34936523 C-31.18470221 129.30955775 -31.19525223 138.26969001 -31.2110464 147.22986728 C-31.22415043 154.94054296 -31.22948543 162.65119901 -31.22884732 170.36188573 C-31.22859319 174.95920285 -31.2313977 179.55646639 -31.24202538 184.15377235 C-31.25175472 188.48025556 -31.25175259 192.80663446 -31.24450874 197.13312149 C-31.2434689 198.71365322 -31.24578976 200.29419161 -31.2518692 201.87471199 C-31.39401409 221.1821209 -31.39401409 221.1821209 -22.5625 237.75 C-21.716875 238.4925 -20.87125 239.235 -20 240 C-19.278125 240.680625 -18.55625 241.36125 -17.8125 242.0625 C-10.54461792 247.06926321 -3.68418529 248.27179703 5.0078125 248.7421875 C10.40616982 249.20732011 13.62433576 250.55378888 17.4375 254.5625 C20.71014176 261.76231187 18.90898152 269.93463286 17.43359375 277.47265625 C17.19697777 278.74634315 17.19697777 278.74634315 16.95558167 280.04576111 C16.45799351 282.71967525 15.94877401 285.39117178 15.4375 288.0625 C14.9238566 290.76615171 14.41285799 293.4702055 13.90870667 296.17564392 C13.59627653 297.85053714 13.27818779 299.52438646 12.95396423 301.19703674 C12.59299199 303.12379919 12.29015433 305.06130845 12 307 C12.33 307.33 12.66 307.66 13 308 C13.8353125 307.14728516 13.8353125 307.14728516 14.6875 306.27734375 C18.31912573 302.6027765 21.94227807 298.97842057 25.875 295.625 C29.24557765 292.73785181 32.38503521 289.65752622 35.5 286.5 C38.55337286 283.40507759 41.62323732 280.38065683 44.9375 277.5625 C48.47682224 274.54644511 51.73469419 271.30531189 55 268 C59.49934959 263.45073575 64.09283938 259.11233883 69 255 C69.845625 254.236875 70.69125 253.47375 71.5625 252.6875 C77.80397542 248.36647855 84.75795155 248.71528316 92.06269836 248.7484436 C93.16826637 248.74547346 94.27383438 248.74250333 95.41290444 248.73944318 C99.11296902 248.73181208 102.81287443 248.73829368 106.51293945 248.74462891 C109.16766935 248.7418786 111.82238584 248.7383166 114.47711182 248.73365784 C120.19226734 248.72503581 125.9073919 248.72321409 131.62255287 248.72560501 C139.89654814 248.72870684 148.17047519 248.71704895 156.44445326 248.70105521 C169.88377979 248.67510637 183.32310638 248.65508116 196.76245117 248.64160156 C197.56632616 248.64079119 198.37020115 248.63998082 199.19843598 248.6391459 C210.6033597 248.62792722 222.00827853 248.62264369 233.41320702 248.61975877 C234.21617243 248.61955478 235.01913785 248.61935079 235.84643555 248.61914062 C237.0494096 248.61884072 237.0494096 248.61884072 238.27668617 248.61853476 C251.66312 248.61479832 265.0494798 248.59568942 278.43587655 248.56404626 C286.68570062 248.54515987 294.93533455 248.53915272 303.18517425 248.54986344 C308.84136881 248.55619538 314.4974273 248.54810599 320.15359203 248.52880932 C323.41366313 248.51815568 326.67333713 248.51612579 329.93341637 248.52728081 C333.47471125 248.5384193 337.0151103 248.52494869 340.55635071 248.50552368 C341.57689444 248.51464834 342.59743818 248.523773 343.64890748 248.53317416 C352.76035611 248.43618928 360.08191717 246.05332248 367 240 C367.66 240 368.32 240 369 240 C369.37125 239.2265625 369.37125 239.2265625 369.75 238.4375 C371.07227818 235.85905755 372.52043033 233.3699005 374 230.87890625 C376.58652083 226.0190761 377.29484765 221.91408177 377.28710938 216.44335938 C377.29394241 215.69963577 377.30077545 214.95591217 377.30781555 214.18965149 C377.32136363 212.58116152 377.3304425 210.97262896 377.33552551 209.36408997 C377.34383863 206.81659065 377.36436499 204.26944566 377.38806152 201.7220459 C377.43620496 196.31475003 377.46919908 190.90741885 377.5 185.5 C377.53570023 179.23245593 377.57763988 172.96508626 377.63594055 166.69770813 C377.65597112 164.19114856 377.66432024 161.68472339 377.67224121 159.17810059 C377.68521655 157.63760899 377.69873729 156.09712185 377.71289062 154.55664062 C377.71190872 153.86246536 377.71092682 153.1682901 377.70991516 152.45307922 C377.77234546 147.56668315 378.36476537 143.81692736 381.6875 140.125 C385.10144385 138.46416245 387.38757223 139.08047293 391 140 C392.68959045 141.06910706 392.68959045 141.06910706 394 143 C394.3013269 145.66677924 394.42014268 148.10121706 394.40405273 150.76928711 C394.41434761 151.95535049 394.41434761 151.95535049 394.42485046 153.16537476 C394.44318543 155.78621276 394.43926766 158.40645516 394.43359375 161.02734375 C394.43815614 162.85519098 394.44346188 164.68303649 394.44947815 166.51087952 C394.4584252 170.35017845 394.4559725 174.18926963 394.44604492 178.02856445 C394.4346212 182.92074831 394.45465641 187.81220326 394.48396206 192.70429134 C394.50243023 196.48530053 394.50200944 200.26613905 394.49632454 204.04718208 C394.49617225 205.84868954 394.50213917 207.65020925 394.51461601 209.45167351 C394.60035653 223.87640689 392.94545453 235.17049182 384 247 C383.38125 247.886875 382.7625 248.77375 382.125 249.6875 C374.35974906 258.13792015 363.02474825 264.34817738 351.49471951 265.18094671 C348.59581961 265.24693651 345.70318883 265.25033686 342.80358887 265.23136902 C341.69575531 265.23222246 340.58792174 265.2330759 339.44651747 265.2339552 C335.74487344 265.23456777 332.04341501 265.22106866 328.34179688 265.20776367 C325.68367567 265.20560175 323.0255676 265.20427397 320.3674469 265.20413208 C314.6484761 265.20253499 308.92954489 265.19445736 303.21058655 265.1826992 C294.16799968 265.16478761 285.12548208 265.16873276 276.08288574 265.17634583 C272.9859696 265.17870071 269.88905338 265.18094051 266.79213715 265.18316364 C265.63139307 265.18401044 265.63139307 265.18401044 264.44719961 265.18487435 C255.64888217 265.19106142 246.8505656 265.19341585 238.05224609 265.19360352 C236.84649493 265.19363867 236.84649493 265.19363867 235.61638516 265.19367454 C222.58251257 265.19342397 209.54871954 265.17429804 196.51487273 265.15000685 C183.12161396 265.12568168 169.72853261 265.128116 156.33527613 265.15368825 C148.07984542 265.16847605 139.82501131 265.16148367 131.56963933 265.12638716 C125.9129302 265.10419877 120.25659564 265.10747273 114.59989202 265.13068654 C111.33773392 265.14327779 108.07682689 265.14070145 104.81471443 265.11510277 C101.27435658 265.08906357 97.73669804 265.10605925 94.19641113 265.13371277 C93.17072383 265.11584959 92.14503654 265.09798641 91.0882678 265.07958192 C84.574156 265.18999728 81.26519678 266.59030876 76.6546855 271.23179513 C76.10863928 271.81530274 75.56259307 272.39881034 75 273 C73.99063851 273.9225571 72.97297365 274.83615333 71.9453125 275.73828125 C66.24522488 280.9409928 60.71332058 286.24904996 55.2890625 291.7421875 C53.29258186 293.71141243 51.25847536 295.55759506 49.125 297.375 C45.56713824 300.41430701 42.28557703 303.67363368 39 307 C35.13193318 310.91608752 31.20542792 314.64973124 27.00390625 318.2109375 C23.63016379 321.22297268 20.52740059 324.5062262 17.39453125 327.765625 C13.75095794 331.16550091 10.64862114 333.42843383 5.5625 333.4375 C1.06556393 333.28010724 -1.57408614 332.00811949 -5 329 C-9.45056305 321.65178911 -6.51953762 312.10068544 -5.03125 304.18359375 C-4.8314856 303.08652603 -4.63172119 301.98945831 -4.42590332 300.85914612 C-3.79134322 297.38385775 -3.14585295 293.91070549 -2.5 290.4375 C-2.06568045 288.06979448 -1.63207925 285.70195707 -1.19921875 283.33398438 C-0.14111814 277.55443781 0.92594381 271.77660148 2 266 C1.12682129 265.87447754 0.25364258 265.74895508 -0.64599609 265.61962891 C-2.37970459 265.36318604 -2.37970459 265.36318604 -4.1484375 265.1015625 C-5.28974121 264.93479004 -6.43104492 264.76801758 -7.60693359 264.59619141 C-20.75884284 262.28528607 -31.25645301 255.36618348 -39.27734375 244.7265625 C-44.50208865 236.45701162 -47.14969668 228.19654719 -47.14717102 218.50048828 C-47.15084771 217.74191308 -47.1545244 216.98333788 -47.1583125 216.20177555 C-47.16933204 213.65794767 -47.17319029 211.11416066 -47.17700195 208.5703125 C-47.18326808 206.74685029 -47.18991501 204.92338935 -47.19691467 203.09992981 C-47.21794558 197.10829557 -47.22831842 191.1166611 -47.23828125 185.125 C-47.24232963 183.05990587 -47.24644658 180.99481187 -47.25063133 178.92971802 C-47.26968348 169.22382128 -47.2839126 159.51793214 -47.2922433 149.8120203 C-47.3020062 138.62311071 -47.32830093 127.43439944 -47.36874419 116.24555969 C-47.39895609 107.58888587 -47.41371712 98.93226871 -47.41702431 90.27554321 C-47.41936965 85.10965167 -47.4282623 79.943972 -47.45348549 74.77813721 C-47.47685904 69.91238492 -47.48096225 65.04698258 -47.47072411 60.18118858 C-47.47023083 58.40272542 -47.47648924 56.62424449 -47.49028015 54.84583473 C-47.60592399 39.03860637 -44.92548028 25.90385023 -33.96875 13.74609375 C-25.31675306 5.4859445 -12.30820622 -1.62561214 0 0 Z " fill="#FFFFFF" transform="translate(47,162)"/>
<path d="M0 0 C1.55711225 -0.00967334 1.55711225 -0.00967334 3.14568132 -0.0195421 C4.28982596 -0.01644489 5.4339706 -0.01334769 6.61278629 -0.01015663 C8.43162039 -0.0169533 8.43162039 -0.0169533 10.2871986 -0.02388728 C13.65903599 -0.03438197 17.03066062 -0.03585298 20.40249932 -0.03349853 C24.03651952 -0.03309119 27.67050764 -0.04412144 31.30451298 -0.05361366 C38.42623039 -0.07024226 45.5479147 -0.07572403 52.66964989 -0.07683842 C58.45663952 -0.07778793 64.2436182 -0.08189338 70.03060436 -0.08823967 C86.42786876 -0.1058565 102.82510694 -0.11507775 119.22238087 -0.11357872 C120.54896674 -0.11345885 120.54896674 -0.11345885 121.90235233 -0.11333656 C122.78781917 -0.1132548 123.67328601 -0.11317304 124.58558518 -0.1130888 C138.94165925 -0.11227559 153.29762848 -0.131421 167.65367221 -0.1596133 C182.38463565 -0.18831427 197.11554791 -0.20215516 211.84654003 -0.20042574 C220.1208241 -0.19976092 228.39499823 -0.20529375 236.66925716 -0.22678185 C243.71309787 -0.24495698 250.75677881 -0.24937128 257.80063277 -0.235763 C261.39610913 -0.22921488 264.99127867 -0.2291819 268.58672619 -0.2464695 C272.4804849 -0.26499931 276.37379118 -0.25269391 280.26757145 -0.23720741 C281.40948537 -0.24749454 282.55139929 -0.25778167 283.72791666 -0.26838052 C284.76859924 -0.25918293 285.80928182 -0.24998534 286.88150024 -0.24050903 C287.78057065 -0.24094377 288.67964105 -0.24137851 289.60595602 -0.24182642 C292.79520249 0.42202988 293.98277212 1.75508086 296.00367069 4.25726891 C297.17958043 7.94178609 297.33848408 9.53981165 295.69117069 13.06976891 C294.00367069 15.25726891 294.00367069 15.25726891 292.00367069 16.25726891 C290.38154072 16.35452961 288.75542917 16.38825798 287.13038921 16.39148998 C286.09430543 16.39594783 285.05822164 16.40040567 283.99074137 16.4049986 C282.27015515 16.40472206 282.27015515 16.40472206 280.51480961 16.40443993 C279.30310797 16.40811661 278.09140633 16.4117933 276.84298646 16.41558141 C273.46894656 16.42472043 270.09495535 16.42932059 266.72090769 16.43197072 C263.08619617 16.43586926 259.4514988 16.44544781 255.8167963 16.45418358 C247.03444713 16.47395936 238.25209679 16.484015 229.46973091 16.49291137 C225.3370246 16.4972919 221.20431956 16.50265927 217.07161427 16.50790024 C203.33930636 16.52491261 189.60699926 16.53940818 175.87468243 16.54664898 C172.30993111 16.54855896 168.7451798 16.55047928 165.1804285 16.55243492 C164.29439616 16.55291866 163.40836382 16.5534024 162.49548201 16.5539008 C148.13288308 16.56220634 133.77036729 16.58755204 119.40780468 16.6200156 C104.67235866 16.65305135 89.93695495 16.67109452 75.20147169 16.67429322 C66.92381185 16.67646141 58.64627331 16.6852552 50.36864948 16.71075439 C43.32113318 16.73241378 36.27376763 16.74053537 29.22622181 16.73078761 C25.62872115 16.72622916 22.03153182 16.72821801 18.43407345 16.74754906 C14.53808444 16.76830405 10.64252915 16.75823974 6.74649906 16.7450161 C5.60390302 16.75598534 4.46130698 16.76695459 3.28408682 16.77825624 C2.24278754 16.76967534 1.20148826 16.76109445 0.12863445 16.75225353 C-0.77097803 16.75323034 -1.6705905 16.75420715 -2.59746397 16.75521356 C-5.77667813 16.09528794 -6.96912773 14.73684479 -8.99632931 12.25726891 C-10.08943313 9.21219396 -10.11814669 7.69378121 -9.24632931 4.56976891 C-6.98217361 0.38108086 -4.41324534 0.00691684 0 0 Z " fill="#FFFFFF" transform="translate(149.99632930755615,82.74273109436035)"/>
<path d="M0 0 C1.0255156 -0.00583219 2.05103121 -0.01166439 3.10762304 -0.01767331 C4.23260893 -0.01389399 5.35759481 -0.01011467 6.51667118 -0.00622082 C7.71304189 -0.01004636 8.9094126 -0.01387191 10.14203697 -0.01781338 C13.46408332 -0.02635742 16.78590876 -0.02590568 20.1079489 -0.02163279 C23.69016003 -0.01916981 27.27234496 -0.02817438 30.85454655 -0.03567028 C37.87286028 -0.04843115 44.89113578 -0.05020926 51.90945917 -0.04787002 C57.61298712 -0.04608829 63.31650346 -0.04783338 69.02003002 -0.05209446 C69.83122529 -0.05268965 70.64242056 -0.05328484 71.4781975 -0.05389806 C73.12604371 -0.05510979 74.77388992 -0.05632392 76.42173613 -0.05754044 C91.88135267 -0.06842127 107.34094741 -0.06625088 122.80056519 -0.06015559 C136.9489537 -0.05498565 151.09727337 -0.06624295 165.24564826 -0.08525381 C179.76759492 -0.1046173 194.289509 -0.11289085 208.81146866 -0.10913056 C216.96669915 -0.10721629 225.12187105 -0.10972805 233.27709103 -0.1238451 C240.21948528 -0.1357409 247.16178487 -0.13718408 254.10418039 -0.12505493 C257.64708036 -0.11915359 261.18980701 -0.11810123 264.73269558 -0.13005733 C268.57125576 -0.14286084 272.40955142 -0.13248152 276.24811649 -0.11974621 C277.37087166 -0.12712049 278.49362682 -0.13449478 279.65040487 -0.14209253 C280.67852822 -0.13488598 281.70665157 -0.12767944 282.76593018 -0.12025452 C283.65192774 -0.12030953 284.5379253 -0.12036455 285.45077127 -0.12042123 C289.21985175 0.445892 292.01370128 2.02568709 294.32088566 5.06697559 C295.19443809 8.1244091 294.78792619 10.21017521 293.94588566 13.25447559 C292.29008488 15.47552614 291.4277099 16.17496419 288.66710812 16.63052309 C287.7651623 16.63101014 286.86321649 16.6314972 285.93393898 16.63199902 C284.89238075 16.63982226 283.85082252 16.6476455 282.77770191 16.65570581 C281.62966633 16.64901364 280.48163074 16.64232148 279.29880619 16.63542652 C278.08216658 16.64010649 276.86552696 16.64478647 275.61201948 16.64960825 C272.22867531 16.65952768 268.84582835 16.65592574 265.46251404 16.6466496 C261.81622173 16.63987953 258.1699738 16.6503302 254.52369022 16.65858936 C247.37788425 16.6719512 240.23217263 16.66903797 233.08636291 16.66035144 C227.27982403 16.65358439 221.47331166 16.65265393 215.66676998 16.65592289 C214.84127369 16.65638259 214.01577741 16.65684229 213.16526608 16.65731592 C211.4884276 16.65827507 209.81158912 16.65924771 208.13475066 16.66023369 C192.39903432 16.6687949 176.66337035 16.65894229 160.9276626 16.64283259 C147.41914365 16.62943123 133.91070204 16.63175458 120.40218449 16.64558887 C104.72545979 16.66163609 89.04878104 16.66796823 73.37204927 16.65875208 C71.70097189 16.65779641 70.0298945 16.6568533 68.3588171 16.65592289 C67.53656005 16.65546006 66.714303 16.65499724 65.86712908 16.65452038 C60.06657322 16.65192773 54.26604646 16.65630747 48.46549511 16.66336155 C41.39787752 16.67176733 34.3303599 16.669516 27.26275379 16.65351932 C23.65518173 16.64562372 20.04777648 16.64256673 16.44020557 16.65246677 C12.53335854 16.66302608 8.62678591 16.65043546 4.71994877 16.63542652 C3.00124147 16.64546477 3.00124147 16.64546477 1.24781281 16.65570581 C0.20364683 16.64788257 -0.84051915 16.64005933 -1.91632652 16.63199902 C-2.81843469 16.63151196 -3.72054286 16.6310249 -4.64998764 16.63052309 C-7.5682974 16.17404836 -8.9287242 15.28030504 -11.05411434 13.25447559 C-12.21791315 9.68549259 -12.36331871 7.97052782 -10.86661434 4.50447559 C-7.75860934 0.64626249 -4.83762495 0.00473355 0 0 Z " fill="#FFFFFF" transform="translate(152.05411434173584,140.7455244064331)"/>
<path d="M0 0 C1.91594215 -0.01279495 1.91594215 -0.01279495 3.87059021 -0.02584839 C5.28901685 -0.02514934 6.70744339 -0.02422627 8.12586975 -0.02310181 C9.61734352 -0.0290851 11.10881419 -0.03589018 12.60028076 -0.04345703 C16.65397794 -0.06114348 20.70759071 -0.06581349 24.76132274 -0.0670886 C28.14363708 -0.06898647 31.52593171 -0.07634261 34.90823847 -0.08343279 C42.88671685 -0.09972401 50.86515009 -0.10460104 58.84364319 -0.10317993 C67.07857132 -0.10197793 75.31323761 -0.1230896 83.54809946 -0.15466726 C90.6148432 -0.18080165 97.68150127 -0.19154844 104.74829298 -0.19026911 C108.97050238 -0.18975869 113.19247909 -0.19548612 117.41464043 -0.21662521 C121.38493198 -0.23596032 125.35476771 -0.2361649 129.32507515 -0.22159195 C130.78276865 -0.21949691 132.24049032 -0.22424606 133.69813538 -0.23631287 C135.68680192 -0.25171029 137.67562319 -0.24008322 139.66430664 -0.22705078 C141.3342816 -0.22868508 141.3342816 -0.22868508 143.03799343 -0.2303524 C146.55169348 0.38170342 147.70352136 1.51588001 149.89564514 4.26742554 C151.08816096 6.90799627 150.96434329 8.01136879 150.20814514 10.82992554 C148.69970314 13.63131782 147.61884732 14.64440988 144.89564514 16.26742554 C142.0748148 16.64774227 142.0748148 16.64774227 138.75369263 16.65510559 C137.49329666 16.66501022 136.2329007 16.67491486 134.93431091 16.68511963 C133.53999231 16.68088161 132.14567465 16.67632375 130.75135803 16.67147827 C129.28106161 16.67718132 127.81076962 16.68414533 126.34048462 16.692276 C122.34871377 16.71023017 118.35716247 16.7090348 114.36536336 16.70333362 C111.03279263 16.70024492 107.70026427 16.70633067 104.36769956 16.71237236 C96.50564108 16.72642348 88.64369123 16.72485153 80.78163147 16.71347046 C72.67108715 16.70198911 64.5608735 16.7160637 56.45037276 16.74286693 C49.48634132 16.76501957 42.52241372 16.7716623 35.55834955 16.76579052 C31.39929344 16.76241861 27.24044929 16.76485136 23.08142281 16.78204155 C19.17018758 16.79750173 15.25944235 16.7935659 11.34822655 16.7747364 C9.91353576 16.77104786 8.47880874 16.77416682 7.04415131 16.78462219 C5.08433178 16.79781335 3.12438583 16.78388806 1.1645813 16.76863098 C0.06823396 16.7684217 -1.02811338 16.76821241 -2.15768337 16.76799679 C-5.81017818 16.1475225 -7.48073216 14.83563209 -10.10435486 12.26742554 C-11.27835147 9.21503435 -11.23331204 7.72952212 -10.35435486 4.57992554 C-7.85375925 -0.04617635 -4.81473214 0.01449987 0 0 Z " fill="#FFFFFF" transform="translate(151.10435485839844,199.73257446289063)"/>
</svg>
