<?xml version="1.0" encoding="UTF-8"?>
<svg version="1.1" xmlns="http://www.w3.org/2000/svg" viewBox="0 0 512 512">
<path d="M0 0 C8.03732769 7.15887339 15.40625889 14.7557529 21 24 C21.98033203 25.56621094 21.98033203 25.56621094 22.98046875 27.1640625 C38.00170948 51.77573337 43.22601892 81.67879456 37.03515625 109.953125 C30.26096215 137.64188659 14.72656398 160.45197294 -8.43359375 177.08984375 C-10.49695013 178.62558389 -12.26045916 180.11893719 -14 182 C-12.88625 182.35191406 -11.7725 182.70382813 -10.625 183.06640625 C18.69092286 192.48117198 44.90750724 206.55098997 68 227 C68.9178125 227.79535156 69.835625 228.59070313 70.78125 229.41015625 C75.96871707 233.96481483 80.62740887 238.66439773 85 244 C85.43570312 244.51804199 85.87140625 245.03608398 86.3203125 245.56982422 C97.815201 259.25073931 106.40851335 273.85887791 114 290 C114.47308594 291.00417969 114.94617188 292.00835937 115.43359375 293.04296875 C123.86394382 312.08347903 128.07634142 333.89237197 128.23828125 354.6328125 C128.246353 355.62828094 128.25442474 356.62374939 128.26274109 357.64938354 C128.2764989 359.74198708 128.28725771 361.83461228 128.29516602 363.92724609 C128.30674178 366.06272986 128.32728057 368.19818346 128.35668945 370.33349609 C128.39931464 373.43346634 128.41552122 376.53258586 128.42578125 379.6328125 C128.44328934 380.5829422 128.46079742 381.5330719 128.47883606 382.51199341 C128.45982368 388.32624741 127.8451528 391.55846884 124 396 C120.36918339 398.31968839 117.0723983 398.2626589 112.93359375 397.61328125 C109.71413136 396.59215884 108.04068274 394.59723258 106 392 C104.76822782 388.30468346 104.80663711 384.84349926 104.75390625 380.9921875 C104.72089199 379.34765245 104.68768196 377.70312132 104.65429688 376.05859375 C104.60750456 373.4901078 104.56322672 370.92162772 104.52319336 368.35302734 C104.27699276 353.27139793 103.45516529 338.34127621 99.875 323.625 C99.66399658 322.75343262 99.45299316 321.88186523 99.2355957 320.98388672 C94.36191483 301.9667393 85.11745487 283.40747129 73 268 C72.00419922 266.69869141 72.00419922 266.69869141 70.98828125 265.37109375 C40.53532983 226.69978576 -4.62077893 205.03173801 -52.93208313 199.20372009 C-73.378367 197.18946173 -95.05484236 198.22884815 -115 203 C-115.8967041 203.21430664 -116.7934082 203.42861328 -117.71728516 203.64941406 C-162.84077965 214.82656954 -202.56489476 241.14506746 -227.25 280.97265625 C-243.66183327 309.36366247 -249.24235428 337.75760942 -249.45629883 370.29663086 C-249.47799248 373.07174962 -249.51737314 375.84620622 -249.55859375 378.62109375 C-249.55870956 379.45974472 -249.55882538 380.29839569 -249.5589447 381.16246033 C-249.64845117 386.4981473 -250.45156097 390.27899679 -253 395 C-256.37468683 397.51139485 -258.94438862 398.24053084 -263.0625 397.9375 C-266.90289572 397.27536281 -269.22083632 395.77916368 -272 393 C-273.19137505 390.6172499 -273.13923991 389.12844759 -273.16113281 386.46875 C-273.17074036 385.52596191 -273.1803479 384.58317383 -273.19024658 383.61181641 C-273.19449646 382.58491699 -273.19874634 381.55801758 -273.203125 380.5 C-273.20882507 379.43571777 -273.21452515 378.37143555 -273.22039795 377.27490234 C-273.22986759 375.00847368 -273.23638968 372.74203112 -273.24023438 370.47558594 C-273.249805 367.06939995 -273.2807513 363.66385319 -273.3125 360.2578125 C-273.40131223 342.02131184 -271.20534497 325.49629258 -266 308 C-265.69191406 306.96359375 -265.38382812 305.9271875 -265.06640625 304.859375 C-262.6703203 297.26348426 -259.52307305 290.13627122 -256 283 C-255.42507812 281.82566406 -254.85015625 280.65132813 -254.2578125 279.44140625 C-247.10827868 265.24450183 -237.90552704 252.54452276 -227 241 C-225.89140313 239.6912398 -224.78709026 238.37883641 -223.6875 237.0625 C-199.91459441 209.97875596 -165.37360029 191.47893187 -131 182 C-131.7115625 181.4328125 -132.423125 180.865625 -133.15625 180.28125 C-136.8874376 177.28809951 -140.58286037 174.2522606 -144.28125 171.21875 C-146.05475017 169.77141078 -147.84205855 168.34078134 -149.64453125 166.9296875 C-168.19994214 151.72840561 -179.08469655 126.71889192 -183.64453125 103.75390625 C-185.10084156 88.37462928 -185.39806751 71.90750593 -181 57 C-180.64808594 55.76765625 -180.29617187 54.5353125 -179.93359375 53.265625 C-170.94514795 23.420938 -150.90594637 0.83725943 -123.9375 -14.1875 C-84.6683119 -35.15001265 -33.72985002 -28.38921194 0 0 Z M-136 24 C-136.75796875 24.73476562 -137.5159375 25.46953125 -138.296875 26.2265625 C-153.29280319 41.68788156 -161.45294692 63.78740233 -161.3125 85.1875 C-161.30686035 86.10096191 -161.3012207 87.01442383 -161.29541016 87.95556641 C-160.9767337 105.93712227 -155.52722692 122.39627245 -145 137 C-144.39414063 137.84046875 -143.78828125 138.6809375 -143.1640625 139.546875 C-129.4180449 157.61306956 -108.8476927 170.54241254 -86.17919922 173.76855469 C-60.41175982 176.50522649 -37.64829639 170.73735022 -17 155 C-16.27296875 154.45859375 -15.5459375 153.9171875 -14.796875 153.359375 C1.79655025 140.00369126 12.67404033 118.07285613 15.68359375 97.25 C18.03516859 73.09555222 11.87460689 49.26481674 -3.5 30.125 C-4.98177934 28.40083854 -6.48036938 26.6908949 -8 25 C-8.58652344 24.34257813 -9.17304688 23.68515625 -9.77734375 23.0078125 C-25.85801714 5.98121714 -49.98421013 -2.43179911 -72.921875 -3.1171875 C-97.36118746 -2.83231936 -118.80242841 6.86092355 -136 24 Z " fill="#ffffffff" transform="translate(273,70)"/>
<path d="M0 0 C24.03128292 0 44.30662518 10.11081982 61.625 26.4375 C79.27341088 44.72257794 87.31325497 68.03953616 87 93.3125 C85.73077362 119.8520236 73.22237046 141.66424492 54 159.3125 C50.35205184 162.3125 50.35205184 162.3125 48 162.3125 C48 162.9725 48 163.6325 48 164.3125 C49.216875 164.51875 50.43375 164.725 51.6875 164.9375 C58.23782676 166.40902426 64.01880353 169.33188152 70 172.3125 C70.59087402 172.59867188 71.18174805 172.88484375 71.79052734 173.1796875 C104.94754494 189.30771758 132.80828931 218.86955494 145.25 253.75 C151.04965785 270.6693753 153.23854104 286.77432305 153.35009766 304.58569336 C153.36674615 306.5340563 153.39415115 308.48235601 153.43212891 310.43041992 C153.48684891 313.25992018 153.50875015 316.08801113 153.5234375 318.91796875 C153.55744156 320.21966255 153.55744156 320.21966255 153.59213257 321.5476532 C153.57641572 326.04025609 153.47107172 327.73569554 150.52978516 331.3371582 C149.69495605 331.989021 148.86012695 332.64088379 148 333.3125 C147.67 333.6425 147.34 333.9725 147 334.3125 C142.24305393 334.84985872 138.25804521 334.99394116 134 332.6875 C129.98518696 327.91990952 129.71021661 322.64867583 129.69140625 316.6328125 C129.66620362 315.13020517 129.64080635 313.62760109 129.61523438 312.125 C129.58682506 309.79786401 129.56277278 307.47078593 129.54370117 305.14355469 C129.26175393 276.25480689 120.73007816 249.66882775 102 227.3125 C101.30519531 226.466875 100.61039062 225.62125 99.89453125 224.75 C91.11329936 214.51322694 80.67461546 206.03519803 69 199.3125 C67.90558594 198.66667969 66.81117188 198.02085937 65.68359375 197.35546875 C45.47908211 185.77710325 22.63377044 180.10584128 -0.58984375 179.68359375 C-5.42758385 179.1571501 -9.39286528 177.89658156 -12.90625 174.43359375 C-14.92205302 170.52437574 -14.73971201 166.57794212 -14 162.3125 C-11.1667925 158.42695829 -8.48584595 156.80360522 -4 155.3125 C-1.47104655 154.9634878 1.024369 154.67642572 3.5625 154.4375 C22.10088908 152.36428063 37.16474299 144.03569483 49.13671875 129.765625 C53.34377232 124.03454117 56.43080186 117.92842048 59 111.3125 C59.32097656 110.51972656 59.64195312 109.72695312 59.97265625 108.91015625 C65.10366569 93.80350986 63.17085487 74.794553 56.26953125 60.6328125 C47.88348028 44.54756397 35.11725291 33.21357386 17.9921875 27.23828125 C12.05199928 25.40039012 6.51761495 24.31762597 0.3125 23.875 C-4.91711604 23.4507794 -8.97756921 22.54884174 -12.625 18.515625 C-15.01535577 14.68562314 -14.78213068 10.66706542 -14 6.3125 C-11.5625 3.25 -11.5625 3.25 -9 1.3125 C-6.94345645 -0.74404355 -2.8133706 0.02311964 0 0 Z " fill="#ffffffff" transform="translate(359,88.6875)"/>
</svg>
